<?xml version="1.0" encoding="utf-8"?>
<!-- Generator: Adobe Illustrator 25.2.3, SVG Export Plug-In . SVG Version: 6.00 Build 0)  -->
<svg version="1.1" id="Layer_4" xmlns="http://www.w3.org/2000/svg" xmlns:xlink="http://www.w3.org/1999/xlink" x="0px" y="0px"
	 viewBox="0 0 124 32" style="enable-background:new 0 0 124 32;" xml:space="preserve">
<style type="text/css">
	.st0{display:none;fill:none;}
	.st1{display:none;fill:#CC2973;}
	.st2{display:none;fill:#4555D2;}
	.st3{display:none;fill:#191E47;}
	.st4{fill:#191E47;}
	.st5{font-family:'OpenSans-Bold';}
	.st6{font-size:36px;}
</style>
<path class="st0" d="M21.8,8.9c-0.6,0-1.2,0-1.7-0.1v19.1l0,0v0.1c0.6,0,1.1,0.1,1.7,0.1c2,0,3.9-0.3,5.8-0.7
	c1.6-0.4,3.1-0.9,4.5-1.6V7.1c-0.8,0.3-1.7,0.5-2.6,0.8C27,8.5,24.4,8.9,21.8,8.9z"/>
<path class="st0" d="M14.3,4c-2,0-3.9,0.3-5.8,0.7C7,5.1,5.4,5.7,4,6.4v18.5c0.8-0.3,1.7-0.5,2.6-0.8c2.5-0.6,5.1-1,7.8-1
	c0.6,0,1.2,0,1.7,0.1V4.1l0,0V4.1C15.5,4,14.9,4,14.3,4z"/>
<path class="st1" d="M16,23.2c-0.6,0-1.1-0.1-1.7-0.1c-2.6,0-5.2,0.3-7.8,1c-0.9,0.2-1.7,0.5-2.6,0.8V6.4c1.5-0.7,3-1.2,4.5-1.6
	C10.4,4.2,12.4,4,14.3,4c0.6,0,1.2,0,1.7,0.1v0.1c0.7,0.2,1.3,0.3,2,0.5c0.6,0.1,1.3,0.2,2,0.2V0.8C18.2,0.2,16.3,0,14.3,0
	C12,0,9.8,0.3,7.5,0.9C4.9,1.5,2.3,2.6,0,4v27.1c2.3-1.4,4.9-2.5,7.5-3.1c2.2-0.6,4.5-0.9,6.8-0.9c0.6,0,1.2,0,1.7,0.1V23.2L16,23.2
	z"/>
<path class="st2" d="M28.5,4c-2.2,0.6-4.5,0.9-6.8,0.9c-0.6,0-1.2,0-1.7-0.1c-0.7,0-1.4-0.1-2-0.2c-0.7-0.1-1.3-0.3-2-0.5l0,0v27.1
	c1.9,0.5,3.8,0.8,5.7,0.8c2.3,0,4.6-0.3,6.8-0.9c2.7-0.7,5.2-1.7,7.5-3.1V0.9C33.7,2.3,31.2,3.4,28.5,4z M32.1,25.6
	c-1.5,0.7-3,1.2-4.5,1.6c-1.9,0.5-3.9,0.7-5.8,0.7c-0.6,0-1.2,0-1.7-0.1v-0.1l0,0V8.8c0.6,0,1.1,0.1,1.7,0.1c2.6,0,5.2-0.3,7.8-1
	c0.9-0.2,1.8-0.5,2.6-0.8V25.6z"/>
<path class="st3" d="M53.2,5.2l5.1,10l5.2-10h4.3l-7.5,13.5v7.2h-4v-7.3L48.8,5.2H53.2z"/>
<path class="st3" d="M72.1,26.2c-0.7,0-1.4-0.1-2.1-0.4c-0.6-0.2-1.2-0.6-1.7-1c-0.5-0.4-0.8-1-1.1-1.5c-0.3-0.6-0.4-1.3-0.4-1.9
	c0-0.7,0.2-1.4,0.5-2c0.3-0.6,0.8-1.1,1.3-1.6c0.6-0.5,1.3-0.8,2.1-1c0.9-0.3,1.7-0.4,2.6-0.4c0.7,0,1.3,0.1,2,0.2
	c0.6,0.1,1.2,0.3,1.7,0.5v-0.9c0.1-0.9-0.3-1.7-0.9-2.3c-0.7-0.6-1.6-0.9-2.5-0.8c-0.8,0-1.6,0.1-2.4,0.4c-0.8,0.3-1.6,0.8-2.4,1.3
	l-1.2-2.5c1.9-1.3,4.1-2,6.3-2c1.8-0.1,3.7,0.5,5.1,1.6c1.3,1.2,1.9,2.9,1.8,4.7v4.8c0,0.3,0,0.6,0.2,0.9c0.2,0.2,0.4,0.3,0.7,0.3
	v3.3c-0.6,0.1-1.1,0.2-1.7,0.2c-0.6,0-1.2-0.1-1.7-0.5c-0.4-0.3-0.7-0.8-0.7-1.3l-0.1-0.8c-0.6,0.9-1.5,1.6-2.5,2
	C74.2,26,73.1,26.2,72.1,26.2z M73.2,23.3c0.6,0,1.3-0.1,1.9-0.3c0.5-0.2,1-0.5,1.4-0.9c0.4-0.2,0.6-0.7,0.6-1.1v-1.8
	c-0.5-0.2-1-0.3-1.5-0.4c-0.5-0.1-1-0.2-1.6-0.2c-0.9,0-1.7,0.2-2.5,0.7c-0.6,0.4-1,1-1,1.7c0,0.6,0.3,1.2,0.8,1.6
	C71.8,23.1,72.5,23.4,73.2,23.3L73.2,23.3z"/>
<path class="st3" d="M89,25.9l-5.6-15.3h4l3.9,12.1l3.9-12.1h3.7l-5.6,15.3H89z"/>
<path class="st3" d="M101.7,8.5V4.6h3.9v3.9H101.7z M101.7,25.9V10.6h3.9v15.3L101.7,25.9L101.7,25.9z"/>
<path class="st3" d="M124,25.9h-3.9v-8.6c0.1-0.9-0.2-1.9-0.6-2.7c-0.4-0.6-1.1-0.9-1.8-0.8c-0.4,0-0.8,0.1-1.2,0.2
	c-0.4,0.2-0.8,0.4-1.2,0.7c-0.4,0.3-0.7,0.6-1,1c-0.3,0.4-0.5,0.8-0.6,1.3v8.9h-3.9V10.6h3.5v2.8c0.6-1,1.4-1.8,2.4-2.3
	c1.1-0.6,2.4-0.8,3.6-0.8c0.8,0,1.6,0.1,2.3,0.5c0.6,0.3,1.1,0.8,1.4,1.4c0.3,0.6,0.6,1.2,0.7,1.9c0.1,0.7,0.2,1.5,0.2,2.2V25.9z"/>
<text transform="matrix(1 0 0 1 10.8387 29.1512)" class="st4 st5 st6">Latko</text>
</svg>
